# xmcd
#
# Track frame offsets: 
#        150
#        17856
#        36063
#        50402
#        63199
#        77650
#        92146
#        109990
#        125958
#        139343
#        155331
#        168402
#        180793
#        194674
#        205806
#        218802
#        229656
#        252941
#        269476
#
# Disc length: 3794 seconds
#
# Revision: 0
# Processed by: cddbd v1.5.2PL0 Copyright (c) Steve Scherf et al.
# Submitted via: ExactAudioCopy v0.99pb4
#
DISCID=110ed013
DTITLE=Various Artist - Sony ATV Music Publishing Holiday Sampler 2008 [CD
DTITLE=2)
DYEAR=2008
DGENRE=Christmas/Holiday
TTITLE0=Josh Groban - The Christmas Song
TTITLE1=Trisha Yearwood - The Christmas Song
TTITLE2=Stevie Wonder - The Christmas Song
TTITLE3=Chris Issak - The Christmas Song
TTITLE4=Nat King Cole - The Christmas Song
TTITLE5=Mel Torme - The Christmas Song
TTITLE6=Ron Sexsmith - Snow Angel
TTITLE7=Sarah McLaughlan - Wintersong
TTITLE8=Alan Jackson - Honky Tonk Christmas
TTITLE9=Destiny's Child - 8 Days Of Christmas
TTITLE10=Ray Charles - Snow Is Falling
TTITLE11=Dwight Yoakam - Santa Claus Is Back In Town
TTITLE12=Trisha Yearwood - Santa Claus Is Back In Town
TTITLE13=Elvis Presley - Santa Claus Is Back In Town
TTITLE14=Pearl Bailey - It's A California Christmas
TTITLE15=Lonestar - All My Love For Christmas
TTITLE16=Cyndi Lauper - Early Christmas Morning
TTITLE17=Alabama - Christmas In Dixie
TTITLE18=Nat King Cole - Cradle In Bethlehem
EXTD=
EXTT0=
EXTT1=
EXTT2=
EXTT3=
EXTT4=
EXTT5=
EXTT6=
EXTT7=
EXTT8=
EXTT9=
EXTT10=
EXTT11=
EXTT12=
EXTT13=
EXTT14=
EXTT15=
EXTT16=
EXTT17=
EXTT18=
PLAYORDER=
